<?xml version="1.0" standalone="no"?>
<!DOCTYPE svg PUBLIC "-//W3C//DTD SVG 20010904//EN"
 "http://www.w3.org/TR/2001/REC-SVG-20010904/DTD/svg10.dtd">
<svg version="1.0" xmlns="http://www.w3.org/2000/svg"
 width="964.000000pt" height="964.000000pt" viewBox="0 0 964.000000 964.000000"
 preserveAspectRatio="xMidYMid meet">
<metadata>
Created by potrace 1.14, written by Peter Selinger 2001-2017
</metadata>
<g transform="translate(0.000000,964.000000) scale(0.100000,-0.100000)"
fill="#000000" stroke="none">
<path d="M0 7181 c0 -1353 3 -2462 7 -2464 5 -3 8 194 8 436 0 243 3 409 7
369 3 -40 8 -76 11 -79 3 -2 9 16 13 42 4 32 9 43 15 34 6 -10 9 -5 10 16 1
29 1 29 8 5 6 -22 8 -23 14 -7 4 10 15 17 24 16 19 -2 45 6 77 23 11 6 39 10
63 10 30 -1 45 4 52 16 9 15 10 15 11 -3 1 -11 4 -14 7 -8 3 9 10 10 22 4 9
-5 30 -8 45 -7 28 3 86 -22 86 -36 0 -5 7 -8 16 -8 10 0 -3 19 -35 52 -28 29
-51 55 -51 58 0 4 -11 20 -25 36 -14 16 -25 32 -25 36 0 4 -7 14 -16 22 -8 9
-11 16 -6 16 5 0 19 -13 30 -28 44 -57 142 -152 157 -152 8 0 14 -3 13 -7 -3
-16 15 -43 28 -43 8 0 14 -7 14 -15 0 -8 4 -15 9 -15 6 0 10 -173 10 -427 1
-235 3 -429 6 -431 3 -3 -2 -16 -11 -30 -9 -13 -11 -21 -5 -18 8 5 11 -40 12
-156 1 -90 4 -151 6 -135 l4 27 360 0 360 0 37 42 c20 23 87 94 147 158 139
146 366 400 372 417 5 13 -142 177 -361 400 -119 122 -168 183 -147 183 6 0
11 4 11 10 0 5 -15 1 -32 -10 -31 -19 -51 -20 -348 -19 -173 0 -335 4 -360 9
-35 7 -28 7 31 3 42 -3 87 -2 100 3 23 7 22 8 -11 15 -19 4 -45 5 -57 2 -13
-3 -23 -1 -23 5 0 6 12 12 27 14 23 2 30 11 41 43 7 22 26 53 42 68 17 15 30
35 30 43 0 8 10 14 25 14 14 0 25 5 25 10 0 6 -9 10 -21 10 -12 0 -17 4 -13
11 3 6 15 8 26 6 12 -4 18 -1 15 6 -2 7 -17 15 -33 18 -25 6 -23 7 16 9 35 1
41 3 25 10 -14 6 1 9 50 11 l70 2 -55 7 c-30 4 161 8 425 11 l480 4 35 -40
c19 -21 62 -69 96 -105 34 -36 113 -123 178 -195 l116 -130 0 -361 0 -361 -52
-55 c-29 -30 -105 -110 -168 -179 -63 -68 -117 -126 -120 -129 -3 -3 -41 -45
-84 -95 -44 -49 -104 -116 -135 -147 l-55 -58 -30 28 c-17 15 -6 -2 24 -38 30
-36 57 -67 60 -70 3 -3 37 -41 75 -85 38 -44 146 -165 240 -270 95 -104 246
-275 335 -380 90 -104 166 -192 169 -195 3 -3 28 -32 56 -65 27 -33 64 -76 81
-95 17 -19 55 -62 84 -95 28 -33 63 -72 76 -87 l24 -27 -399 0 -400 -1 -23 32
c-12 18 -32 40 -43 50 -12 9 -48 49 -80 89 -33 40 -112 129 -175 198 -63 69
-147 162 -185 206 -80 91 -167 187 -269 295 -93 99 -257 278 -287 313 l-24 29
-101 -104 c-91 -92 -125 -129 -242 -261 l-32 -37 0 -627 c0 -344 2 -628 4
-631 3 -2 12 11 20 29 8 19 40 60 70 93 31 32 56 64 56 70 0 7 -3 8 -8 1 -19
-27 -123 -117 -113 -98 14 27 15 55 1 33 -5 -8 -10 -11 -10 -7 0 15 43 66 52
61 5 -3 7 -1 6 5 -3 12 80 101 94 101 5 0 7 -4 4 -9 -11 -17 -15 -81 -6 -81 6
0 10 -11 10 -25 0 -25 -19 -47 -129 -149 l-53 -49 4 -425 4 -424 -45 6 c-24 3
-158 6 -297 6 l-254 0 -2 1043 c-1 573 -4 975 -8 892 -3 -82 -7 -844 -9 -1692
l-2 -1543 4820 0 4821 0 0 1425 c0 894 -4 1425 -10 1425 -5 0 -13 -7 -17 -15
-7 -13 -126 -143 -223 -245 -19 -20 -64 -68 -99 -108 -35 -39 -69 -68 -74 -65
-6 3 -7 2 -4 -4 4 -6 -8 -24 -26 -40 -17 -16 -54 -54 -81 -84 -103 -114 -201
-214 -209 -211 -5 1 -6 -1 -4 -5 3 -5 -28 -43 -68 -87 l-72 -79 -938 2 c-516
0 -941 4 -944 7 -6 6 -9 410 -2 432 2 9 189 12 891 12 l889 0 22 32 c40 57
131 148 142 141 6 -3 7 -1 3 6 -4 6 0 14 8 17 9 3 14 9 11 13 -2 4 18 28 44
53 27 26 58 60 71 77 12 17 26 28 32 25 6 -4 8 -3 5 3 -3 5 2 16 11 24 9 9 60
62 112 119 52 56 114 122 138 146 l43 42 -5 664 c-3 365 -5 920 -5 1233 l-1
570 -161 175 c-89 96 -207 225 -264 285 -56 61 -115 125 -130 143 l-28 33
-918 -7 -919 -7 0 231 c0 127 3 237 6 246 6 14 105 16 1023 16 l1016 0 110
-122 c61 -67 152 -169 204 -227 52 -58 133 -146 180 -196 47 -49 121 -127 164
-173 l77 -83 0 1900 0 1901 -4820 0 -4820 0 0 -2459z m297 2252 c-3 -10 -5 -2
-5 17 0 19 2 27 5 18 2 -10 2 -26 0 -35z m-234 2 c-3 -9 -8 -14 -10 -11 -3 3
-2 9 2 15 9 16 15 13 8 -4z m5669 -875 c6 0 8 -13 5 -32 -4 -18 -7 -97 -8
-175 l-3 -141 50 -54 c51 -57 113 -155 81 -129 -13 10 -17 10 -17 1 0 -10 -3
-10 -15 0 -13 11 -14 10 -9 -4 3 -9 11 -16 18 -15 28 3 47 -2 41 -11 -5 -8
-11 -7 -21 1 -19 16 -18 5 6 -33 11 -18 20 -30 20 -26 0 7 166 -161 197 -199
10 -12 31 -38 47 -58 15 -19 33 -32 39 -28 5 3 7 1 4 -4 -4 -6 1 -20 11 -31
18 -20 31 -21 343 -27 179 -3 338 -10 354 -14 25 -8 20 -9 -32 -10 -51 -1 -63
-4 -63 -17 0 -11 -5 -14 -17 -9 -10 4 -36 10 -59 12 -35 4 -42 2 -46 -15 -4
-14 -13 -20 -32 -19 l-26 2 23 17 22 18 -25 0 c-27 0 -45 -9 -51 -26 -2 -6
-31 -34 -64 -64 -33 -29 -93 -84 -132 -123 -40 -38 -73 -64 -73 -58 0 6 -11
11 -25 11 -14 0 -25 -5 -25 -11 0 -6 7 -9 15 -5 9 3 15 0 15 -8 0 -7 -13 -16
-30 -19 -18 -4 -30 -13 -30 -22 0 -15 -2 -15 -15 -1 -18 18 -10 43 16 51 10 3
31 19 46 36 33 35 47 37 37 7 -6 -20 -5 -21 10 -9 12 10 13 17 5 27 -14 17 -1
37 19 29 9 -3 13 -3 9 1 -10 10 13 35 26 27 6 -3 7 -1 3 6 -5 7 17 34 53 70
34 32 61 64 61 71 0 10 -32 12 -147 8 l-147 -4 -45 45 c-25 25 -83 89 -127
141 -45 52 -93 106 -106 120 -14 14 -50 56 -82 94 -32 38 -77 87 -100 108
l-41 39 -40 -43 c-22 -24 -114 -124 -205 -222 -91 -99 -186 -202 -212 -230
l-48 -50 -82 1 c-46 1 -91 4 -101 8 -16 7 -77 -11 -77 -22 0 -3 39 -46 88 -95
48 -49 86 -93 85 -99 -2 -5 1 -8 6 -6 5 1 32 -24 60 -56 52 -60 67 -85 30 -51
-12 10 -24 18 -28 17 -20 -8 -109 60 -103 79 1 5 -2 7 -7 5 -5 -1 -57 43 -116
97 -61 57 -117 100 -130 101 -13 2 -32 6 -44 10 -12 4 -21 2 -21 -4 0 -14 -37
-14 -45 -1 -3 6 -11 10 -16 10 -6 0 -7 -4 -4 -10 7 -12 3 -12 -19 -4 -9 3 -16
12 -16 20 0 8 -11 14 -27 15 -54 2 48 18 122 19 174 2 390 10 402 14 6 3 13 0
16 -7 4 -13 2 -15 198 193 207 221 221 238 214 250 -4 6 7 29 25 51 18 22 33
46 34 52 3 18 30 57 38 57 5 0 8 -13 8 -28 0 -29 -14 -48 -69 -95 -19 -15 -31
-31 -27 -34 4 -4 29 16 55 44 60 64 65 88 57 306 -4 102 -3 158 4 162 6 4 8
11 4 16 -3 5 -2 40 3 77 l8 67 3 -77 c2 -47 7 -78 14 -78z m-5392 -45 c0 -8
-2 -15 -4 -15 -2 0 -6 7 -10 15 -3 8 -1 15 4 15 6 0 10 -7 10 -15z m170 0 c0
-8 -2 -15 -4 -15 -2 0 -6 7 -10 15 -3 8 -1 15 4 15 6 0 10 -7 10 -15z m5390
11 c0 -3 -4 -8 -10 -11 -5 -3 -10 -1 -10 4 0 6 5 11 10 11 6 0 10 -2 10 -4z
m-5493 -21 c0 -8 -4 -15 -9 -15 -4 0 -8 7 -8 15 0 8 4 15 8 15 5 0 9 -7 9 -15z
m-130 -37 c-3 -7 -5 -2 -5 12 0 14 2 19 5 13 2 -7 2 -19 0 -25z m5193 22 c0
-5 -2 -10 -4 -10 -3 0 -8 5 -11 10 -3 6 -1 10 4 10 6 0 11 -4 11 -10z m-5133
-47 c-3 -10 -5 -4 -5 12 0 17 2 24 5 18 2 -7 2 -21 0 -30z m5097 21 c5 -14 4
-15 -9 -4 -17 14 -19 20 -6 20 5 0 12 -7 15 -16z m-4974 -4 c0 -5 -2 -10 -4
-10 -3 0 -8 5 -11 10 -3 6 -1 10 4 10 6 0 11 -4 11 -10z m47 -22 c-3 -8 -6 -5
-6 6 -1 11 2 17 5 13 3 -3 4 -12 1 -19z m-47 -12 c0 -2 -7 -7 -16 -10 -8 -3
-12 -2 -9 4 6 10 25 14 25 6z m-140 -66 c0 -16 -4 -30 -8 -30 -4 0 -9 14 -10
30 -1 17 2 30 8 30 5 0 10 -13 10 -30z m85 20 c3 -6 -1 -7 -9 -4 -11 4 -16 0
-16 -15 0 -12 6 -21 15 -21 8 0 15 -4 15 -10 0 -5 -10 -8 -22 -6 -18 2 -24 11
-26 34 -3 26 0 32 17 32 11 0 23 -4 26 -10z m91 -8 c1 -7 0 -8 -2 -3 -3 6 -12
7 -20 4 -8 -3 -14 0 -14 7 0 15 33 9 36 -8z m4934 -7 c14 -19 14 -19 -2 -6
-10 7 -18 18 -18 24 0 6 1 8 3 6 1 -2 9 -13 17 -24z m240 6 c0 -11 3 -27 7
-37 4 -11 3 -15 -4 -11 -13 8 -23 67 -11 67 4 0 8 -9 8 -19z m281 -184 c-10
-9 -11 -8 -5 6 3 10 9 15 12 12 3 -3 0 -11 -7 -18z m-331 -50 c0 -2 -10 -12
-22 -23 l-23 -19 19 23 c18 21 26 27 26 19z m470 -72 c-7 -8 -20 -15 -28 -15
-13 0 -12 3 4 15 25 19 40 19 24 0z m-704 -7 c4 -6 2 -14 -4 -16 -7 -2 -10 -8
-6 -13 8 -13 -10 -11 -24 3 -9 9 -19 5 -42 -17 l-30 -29 0 24 c0 13 7 32 17
42 18 20 78 25 89 6z m601 -3 c0 -8 -4 -15 -9 -15 -4 0 -8 7 -8 15 0 8 4 15 8
15 5 0 9 -7 9 -15z m-570 -36 c6 -21 7 -21 20 -4 7 11 13 14 13 9 0 -13 -21
-34 -34 -34 -22 0 -37 17 -30 33 9 24 25 21 31 -4z m518 -10 c11 -16 1 -19
-13 -3 -7 8 -8 14 -3 14 5 0 13 -5 16 -11z m176 -157 c4 -2 20 -20 35 -40 27
-35 27 -35 4 -17 -32 23 -118 127 -127 151 -3 11 13 -6 37 -36 24 -30 47 -56
51 -58z m366 76 c-3 -8 -6 -5 -6 6 -1 11 2 17 5 13 3 -3 4 -12 1 -19z m-717
-20 c0 -12 -28 3 -34 18 -4 11 -2 12 14 1 11 -6 20 -15 20 -19z m-560 -23 c13
-14 21 -25 18 -25 -2 0 -15 11 -28 25 -13 14 -21 25 -18 25 2 0 15 -11 28 -25z
m-4626 -27 c5 -18 -1 -29 -26 -50 -18 -16 -36 -28 -40 -28 -14 0 4 54 25 78
11 12 24 22 28 22 3 0 9 -10 13 -22z m4685 -37 c-2 -6 -10 2 -17 17 -11 25
-11 25 4 10 9 -9 15 -21 13 -27z m71 6 c0 -4 -6 -2 -14 5 -8 7 -12 17 -9 22 5
8 23 -12 23 -27z m740 -7 c0 -5 -2 -10 -4 -10 -3 0 -8 5 -11 10 -3 6 -1 10 4
10 6 0 11 -4 11 -10z m-1292 -18 c2 -7 -2 -10 -12 -6 -9 3 -16 11 -16 16 0 13
23 5 28 -10z m1327 -22 c10 -11 16 -20 13 -20 -3 0 -13 9 -23 20 -10 11 -16
20 -13 20 3 0 13 -9 23 -20z m465 16 c0 -2 -8 -10 -17 -17 -16 -13 -17 -12 -4
4 13 16 21 21 21 13z m-892 -31 c-43 -29 -61 -56 -52 -79 7 -18 14 -19 39 -10
13 5 14 8 3 15 -10 7 -9 9 4 9 12 0 16 5 12 18 -5 14 -4 14 4 3 11 -15 55 -24
46 -9 -9 14 9 9 29 -9 24 -21 17 -5 -20 45 -13 17 -19 32 -14 32 6 0 11 -5 11
-10 0 -6 12 -16 28 -23 15 -6 33 -17 40 -24 7 -7 20 -13 29 -13 25 0 63 -43
63 -72 0 -21 4 -26 15 -21 9 3 15 2 14 -3 -1 -5 -1 -17 0 -28 1 -15 4 -16 15
-7 10 8 16 9 21 1 9 -14 21 -13 39 5 22 22 29 2 7 -21 -13 -15 -16 -26 -10
-42 6 -17 5 -24 -6 -28 -8 -4 -12 -10 -9 -15 3 -5 10 -7 15 -4 5 4 12 -1 15
-9 9 -23 -4 -66 -19 -63 -6 1 -11 -4 -9 -10 1 -7 -3 -13 -9 -13 -6 0 -3 -7 6
-16 14 -15 14 -18 0 -34 -8 -9 -12 -20 -8 -23 3 -4 0 -7 -8 -7 -8 0 -31 -17
-50 -37 -78 -83 -99 -99 -110 -83 -9 12 -10 12 -5 -3 4 -11 -5 -29 -24 -49
-17 -17 -30 -26 -30 -20 0 6 5 14 10 17 6 4 8 11 4 16 -4 6 -11 6 -20 -2 -15
-12 -39 0 -57 29 -5 7 -12 10 -18 7 -5 -4 -9 -1 -9 6 0 9 -3 9 -14 0 -11 -9
-16 -9 -22 0 -4 8 -3 9 4 5 7 -4 12 -1 12 9 0 13 -4 14 -22 4 -22 -12 -22 -11
-8 6 14 17 13 18 -4 12 -15 -6 -16 -5 -8 5 8 10 -1 25 -33 60 -24 26 -45 43
-47 37 -6 -19 -58 -18 -68 2 -6 10 -6 20 -1 23 13 8 41 -4 41 -17 0 -8 3 -8
11 0 13 13 3 36 -12 28 -5 -4 -9 6 -9 20 0 17 -4 24 -12 19 -7 -5 -8 -3 -3 6
4 7 2 16 -5 20 -12 8 -12 8 43 72 30 36 19 40 -14 6 l-32 -33 26 35 c15 21 33
35 46 34 11 0 18 3 15 7 -2 4 -1 9 3 12 5 2 2 2 -5 0 -8 -1 -12 3 -9 9 2 7 10
12 17 10 10 -2 10 1 -1 14 -8 10 -9 15 -4 12 6 -4 18 0 29 7 13 10 15 18 8 30
-8 15 -12 14 -30 -11 -12 -16 -27 -36 -34 -44 -7 -8 -12 -17 -11 -20 1 -3 -7
-7 -18 -7 -27 -2 -24 9 11 42 17 16 30 35 30 43 0 8 6 12 15 8 10 -4 15 1 15
14 0 11 7 20 15 20 8 0 15 5 15 11 0 7 8 18 18 25 10 9 13 17 7 21 -5 5 -17
17 -25 28 -10 15 -7 14 13 -4 24 -22 29 -23 40 -9 13 17 46 37 62 38 5 0 -7
-11 -27 -25z m550 -32 c6 -6 9 -14 5 -16 -5 -2 -19 10 -33 27 -19 23 -20 27
-5 16 11 -8 26 -20 33 -27z m312 23 c0 -11 -19 -15 -25 -6 -3 5 1 10 9 10 9 0
16 -2 16 -4z m-886 -61 c3 -8 1 -15 -4 -15 -6 0 -10 7 -10 15 0 8 2 15 4 15 2
0 6 -7 10 -15z m550 -10 c-4 -8 -11 -15 -16 -15 -6 0 -5 6 2 15 7 8 14 15 16
15 2 0 1 -7 -2 -15z m-219 -5 c3 -5 1 -10 -4 -10 -6 0 -11 5 -11 10 0 6 2 10
4 10 3 0 8 -4 11 -10z m275 -11 c0 -6 -4 -7 -10 -4 -5 3 -10 11 -10 16 0 6 5
7 10 4 6 -3 10 -11 10 -16z m-240 -24 c14 -19 14 -19 -2 -6 -10 7 -18 18 -18
24 0 6 1 8 3 6 1 -2 9 -13 17 -24z m-879 -28 c-10 -9 -11 -8 -5 6 3 10 9 15
12 12 3 -3 0 -11 -7 -18z m919 -2 c7 -9 8 -15 2 -15 -5 0 -12 7 -16 15 -3 8
-4 15 -2 15 2 0 9 -7 16 -15z m34 -20 c-6 -15 5 -20 35 -15 12 1 13 -1 2 -14
-11 -14 -15 -13 -33 4 -11 10 -17 23 -13 29 9 16 15 13 9 -4z m-1521 -22 c-7
-2 -21 -2 -30 0 -10 3 -4 5 12 5 17 0 24 -2 18 -5z m898 -38 c-1 -6 -7 -10
-13 -10 -7 0 -12 -9 -11 -18 0 -10 -2 -16 -5 -13 -3 3 -11 1 -19 -5 -20 -18
-15 0 10 31 21 28 39 35 38 15z m957 -13 c2 -7 -2 -10 -12 -6 -9 3 -16 11 -16
16 0 13 23 5 28 -10z m-1343 -10 c-3 -3 -11 0 -18 7 -9 10 -8 11 6 5 10 -3 15
-9 12 -12z m1095 -22 c0 -5 -2 -10 -4 -10 -3 0 -8 5 -11 10 -3 6 -1 10 4 10 6
0 11 -4 11 -10z m-870 -130 c0 -5 -2 -10 -4 -10 -3 0 -8 5 -11 10 -3 6 -1 10
4 10 6 0 11 -4 11 -10z m1385 0 c3 -5 1 -10 -4 -10 -6 0 -11 5 -11 10 0 6 2
10 4 10 3 0 8 -4 11 -10z m-595 -14 c0 -2 -7 -9 -15 -16 -13 -11 -14 -10 -9 4
5 14 24 23 24 12z m-663 -21 c3 -9 3 -19 -1 -22 -7 -7 -36 16 -36 28 0 15 30
10 37 -6z m947 -14 c-10 -10 -23 -16 -28 -13 -5 3 2 11 15 18 33 18 36 17 13
-5z m-1318 -18 c-6 -6 -36 9 -36 18 0 5 9 4 20 -3 10 -7 18 -14 16 -15z m476
-3 c10 -10 14 -21 10 -24 -12 -7 -45 22 -37 33 8 14 8 14 27 -9z m30 -85 c19
-29 46 -54 52 -48 4 4 5 1 2 -7 -4 -9 11 -33 34 -57 21 -24 36 -43 32 -43 -11
0 -82 60 -81 68 3 18 -2 26 -10 14 -6 -10 -13 -8 -32 8 l-24 21 25 -7 25 -7
-20 24 c-11 13 -35 38 -52 54 -18 17 -33 34 -33 38 0 9 71 -42 82 -58z m-317
35 c3 -5 1 -10 -4 -10 -6 0 -11 5 -11 10 0 6 2 10 4 10 3 0 8 -4 11 -10z m951
-112 c-20 -23 -34 -48 -32 -55 3 -7 0 -15 -6 -19 -7 -4 -8 -3 -4 4 15 25 -13
11 -37 -18 -17 -19 -31 -28 -41 -24 -9 3 -16 9 -16 13 0 3 27 33 61 66 33 33
68 72 77 88 16 26 17 27 26 8 7 -16 1 -29 -28 -63z m204 51 c0 -5 -4 -9 -10
-9 -5 0 -10 7 -10 16 0 8 5 12 10 9 6 -3 10 -10 10 -16z m91 4 c13 -16 12 -17
-3 -4 -10 7 -18 15 -18 17 0 8 8 3 21 -13z m-6423 -21 c-7 -10 -14 -19 -15
-21 -3 -4 2 28 6 47 1 2 6 0 11 -3 8 -5 7 -12 -2 -23z m269 -4 c-3 -8 -6 -5
-6 6 -1 11 2 17 5 13 3 -3 4 -12 1 -19z m4638 12 c3 -5 1 -10 -4 -10 -6 0 -11
5 -11 10 0 6 2 10 4 10 3 0 8 -4 11 -10z m355 -36 c0 -16 -9 -18 -30 -4 -13 9
-13 11 0 19 17 12 30 5 30 -15z m573 -8 c-10 -13 -20 -22 -22 -20 -4 4 29 44
36 44 2 0 -4 -11 -14 -24z m-697 5 c-7 -11 30 -58 39 -50 3 4 -1 14 -10 22
-25 26 -17 32 10 7 14 -13 23 -31 20 -39 -6 -21 10 -47 19 -32 4 6 4 16 0 23
-4 6 5 3 19 -8 15 -10 27 -23 27 -28 0 -5 -7 -3 -15 4 -13 11 -14 8 -9 -19 4
-17 4 -31 1 -31 -8 0 -117 138 -117 149 0 6 5 11 11 11 5 0 8 -4 5 -9z m329
-2 c11 -17 -1 -21 -15 -4 -8 9 -8 15 -2 15 6 0 14 -5 17 -11z m-35 -19 c0 -5
-4 -10 -10 -10 -5 0 -10 5 -10 10 0 6 5 10 10 10 6 0 10 -4 10 -10z m340 -53
c0 -2 -15 -16 -32 -33 l-33 -29 29 33 c28 30 36 37 36 29z m-5516 -29 c-35
-41 -44 -49 -44 -42 0 9 51 64 58 64 3 0 -3 -10 -14 -22z m5888 0 c-7 -7 -12
-8 -12 -2 0 14 12 26 19 19 2 -3 -1 -11 -7 -17z m-771 -31 c-10 -9 -11 -8 -5
6 3 10 9 15 12 12 3 -3 0 -11 -7 -18z m949 -13 c0 -3 -7 -1 -15 6 -8 7 -15 17
-15 22 0 5 7 3 15 -6 8 -8 15 -18 15 -22z m-1030 5 c0 -6 -4 -7 -10 -4 -5 3
-10 11 -10 16 0 6 5 7 10 4 6 -3 10 -11 10 -16z m695 -7 c-8 -8 -25 10 -19 20
4 6 9 5 15 -3 4 -7 6 -15 4 -17z m-159 -36 c-24 -30 -46 -67 -49 -83 -7 -41
-7 -73 1 -73 4 0 33 25 66 55 32 30 62 55 65 55 3 0 -27 -31 -66 -68 l-73 -68
0 -171 0 -172 87 -98 c48 -54 97 -106 110 -116 23 -19 31 -47 13 -47 -5 0 -16
12 -24 28 -8 15 -51 65 -94 112 l-80 85 -7 -150 c-4 -82 -5 -397 -1 -700 6
-535 10 -1769 7 -2543 l-1 -383 -157 3 -158 3 -5 224 -5 224 -75 -84 c-41 -46
-129 -148 -194 -227 l-120 -142 -168 0 c-117 0 -168 3 -168 11 0 14 -142 455
-330 1024 -76 231 -164 501 -195 600 -63 201 -339 1038 -380 1155 -32 91 -36
96 -45 79 -24 -44 -273 -816 -353 -1094 -19 -66 -44 -147 -56 -180 -29 -83
-169 -524 -177 -557 -3 -16 -10 -25 -15 -22 -5 3 -6 -1 -3 -9 5 -14 -71 -262
-86 -282 -9 -11 -10 -16 -10 -40 0 -8 -7 -15 -16 -15 -14 0 -14 -3 -4 -15 10
-12 10 -15 0 -15 -8 0 -10 -3 -7 -7 4 -3 2 -12 -5 -20 -6 -7 -8 -16 -5 -20 4
-3 2 -12 -4 -19 -6 -7 -12 -27 -14 -44 -3 -18 -10 -39 -17 -47 -10 -13 -14
-13 -25 3 -7 10 -16 15 -19 11 -4 -4 4 -15 17 -26 20 -16 22 -22 11 -42 -11
-24 -11 -24 -6 4 5 22 3 26 -10 21 -12 -5 -15 -15 -13 -38 2 -17 2 -23 0 -13
-8 34 -24 5 -17 -31 7 -35 6 -36 -11 -22 -17 14 -17 13 -10 -10 8 -25 8 -25
-14 -6 -24 21 -27 42 -8 49 9 4 9 6 -1 6 -19 1 -24 -22 -12 -53 l10 -27 -30
21 c-29 21 -41 60 -19 60 8 0 8 5 -1 15 -7 8 -16 12 -21 9 -19 -11 -46 7 -45
29 1 17 -4 21 -19 19 -17 -3 -16 0 8 21 31 28 36 42 8 27 -26 -13 -52 -13 -28
1 9 5 17 16 17 24 0 8 8 19 18 24 9 6 12 11 5 11 -6 0 -14 -4 -18 -10 -3 -5
-13 -6 -22 -3 -15 6 -14 7 2 13 17 6 17 7 1 13 -12 5 -19 0 -26 -16 -5 -12 -9
-17 -9 -10 -1 17 42 127 51 131 5 2 6 7 4 11 -3 4 -1 23 4 42 37 147 65 246
91 319 32 89 70 214 96 315 9 33 20 71 26 85 5 14 11 32 12 40 1 16 14 58 107
355 27 88 66 212 85 275 19 63 59 189 88 280 30 91 107 338 173 550 66 212
147 471 182 575 34 105 77 237 95 295 18 58 36 98 39 90 90 -240 547 -1609
611 -1830 20 -69 55 -177 76 -240 22 -63 61 -180 85 -260 41 -130 74 -232 172
-525 17 -49 42 -124 55 -165 14 -41 50 -147 80 -235 31 -88 76 -226 102 -307
26 -83 52 -148 58 -147 7 0 33 27 59 61 51 65 299 341 357 398 l36 35 -2 1778
-1 1779 85 -83 85 -84 24 30 c13 17 24 43 24 59 0 24 17 46 93 118 50 48 93
88 95 88 1 0 -18 -24 -42 -54z m287 33 c4 -16 3 -18 -9 -8 -7 6 -11 15 -8 20
8 13 11 11 17 -12z m-810 -39 c-7 -28 -13 -25 -13 6 0 14 4 23 9 20 5 -3 7
-15 4 -26z m-5113 17 c0 -2 -10 -12 -22 -23 l-23 -19 19 23 c18 21 26 27 26
19z m5244 -13 c9 -24 7 -31 -4 -14 -9 13 -11 13 -20 0 -11 -17 -13 -10 -4 14
3 9 10 16 14 16 4 0 11 -7 14 -16z m-4774 -29 c0 -14 -4 -25 -9 -25 -12 0 -23
29 -15 41 10 18 24 9 24 -16z m5660 9 c0 -8 -5 -12 -10 -9 -6 4 -8 11 -5 16 9
14 15 11 15 -7z m-944 -20 c-7 -18 30 -84 46 -84 6 0 8 -3 4 -7 -4 -4 -27 14
-52 41 -24 27 -42 51 -39 55 3 3 10 -1 15 -9 8 -12 10 -12 16 3 3 9 8 17 11
17 3 0 2 -7 -1 -16z m728 -86 c6 -4 8 -10 4 -13 -7 -7 -48 43 -48 59 0 6 8 -1
17 -14 9 -14 21 -28 27 -32z m-277 -100 c-3 -7 -5 -2 -5 12 0 14 2 19 5 13 2
-7 2 -19 0 -25z m240 -5 c9 -14 11 -23 4 -27 -6 -4 -17 7 -26 25 -19 36 -1 37
22 2z m103 17 c0 -5 -2 -10 -4 -10 -3 0 -8 5 -11 10 -3 6 -1 10 4 10 6 0 11
-4 11 -10z m-6012 -25 c-3 -3 -9 2 -12 12 -6 14 -5 15 5 6 7 -7 10 -15 7 -18z
m5766 8 c9 4 16 2 16 -3 0 -6 -11 -10 -25 -10 -17 0 -25 5 -25 18 0 14 2 14 9
3 5 -8 16 -11 25 -8z m-634 3 c0 -3 -4 -8 -10 -11 -5 -3 -10 -1 -10 4 0 6 5
11 10 11 6 0 10 -2 10 -4z m-40 -22 c0 -8 -5 -12 -10 -9 -6 4 -8 11 -5 16 9
14 15 11 15 -7z m-5119 -11 c13 -16 12 -17 -3 -4 -10 7 -18 15 -18 17 0 8 8 3
21 -13z m79 -28 c13 -14 21 -25 18 -25 -2 0 -15 11 -28 25 -13 14 -21 25 -18
25 2 0 15 -11 28 -25z m-21 -40 c13 -19 63 -75 111 -125 48 -49 83 -90 78 -90
-15 0 -187 186 -196 211 -2 5 -17 9 -33 9 -29 0 -39 14 -16 23 24 10 32 6 56
-28z m534 18 c-7 -2 -21 -2 -30 0 -10 3 -4 5 12 5 17 0 24 -2 18 -5z m41 -11
c-11 -10 -19 -22 -17 -28 2 -6 -4 -17 -14 -25 -16 -13 -17 -12 -4 4 7 9 9 17
3 17 -15 0 -35 -28 -27 -39 3 -7 0 -8 -9 -5 -9 3 -16 1 -16 -5 0 -6 5 -11 10
-11 6 0 10 -5 10 -11 0 -8 -4 -9 -13 0 -11 8 -22 2 -50 -29 -21 -21 -37 -43
-37 -48 0 -19 34 -23 47 -6 6 9 30 36 53 60 23 24 39 44 36 44 -3 0 15 20 41
45 47 46 71 59 54 28 -5 -10 -54 -64 -108 -120 l-98 -101 -103 -7 c-72 -5
-107 -4 -115 4 -8 8 14 11 84 12 51 0 103 4 114 9 13 6 -20 9 -91 9 l-111 1
-34 41 c-50 61 -47 66 6 12 26 -26 44 -41 39 -33 -7 16 -69 95 -91 118 -7 7
-13 16 -13 20 0 7 57 -52 113 -116 25 -30 32 -32 90 -32 58 0 63 2 74 28 7 15
28 44 47 65 19 20 32 37 29 37 -3 0 17 18 43 40 27 22 55 40 64 40 11 -1 10
-5 -6 -18z m1738 11 c25 -5 19 -13 -141 -191 -93 -103 -188 -210 -212 -239
l-44 -52 -685 2 c-377 1 -597 4 -490 7 107 3 179 7 160 9 -66 5 -80 8 -87 14
-3 4 5 7 18 7 13 0 20 4 14 8 -5 4 -11 22 -12 41 -1 18 -6 37 -12 41 -8 4 -5
13 9 25 11 10 20 13 20 7 0 -18 17 -14 24 4 4 11 -1 18 -14 21 -25 7 -25 17 1
60 16 25 24 31 30 22 6 -10 9 -9 15 4 4 10 0 25 -9 35 -12 13 -13 20 -4 33 7
9 17 18 22 20 6 2 9 7 8 12 -2 4 1 7 5 7 4 0 8 10 9 21 2 28 1 27 64 38 53 9
54 9 14 11 l-40 3 40 7 c31 6 34 7 13 9 -16 0 -28 5 -28 9 0 9 1268 14 1312 5z
m-2182 -106 c-3 -2 -25 20 -50 47 l-44 51 49 -47 c27 -26 47 -49 45 -51z
m5590 12 c0 -6 -4 -7 -10 -4 -5 3 -10 11 -10 16 0 6 5 7 10 4 6 -3 10 -11 10
-16z m840 7 c0 -3 -4 -8 -10 -11 -5 -3 -10 -1 -10 4 0 6 5 11 10 11 6 0 10 -2
10 -4z m-890 -36 c8 -5 11 -12 8 -16 -10 -9 -38 3 -38 16 0 12 10 13 30 0z
m-5849 -315 c6 -11 -3 -4 -20 15 -17 19 -30 40 -31 45 0 11 36 -30 51 -60z
m108 -69 c-2 -2 -13 8 -23 22 l-19 27 24 -22 c12 -12 21 -24 18 -27z m-99 -1
c11 -13 10 -14 -4 -9 -9 3 -16 10 -16 15 0 13 6 11 20 -6z m70 -10 c13 -14 20
-25 16 -25 -4 0 -19 11 -34 25 -15 14 -22 25 -16 25 6 0 21 -11 34 -25z m8506
-7 l29 -33 -32 29 c-31 28 -38 36 -30 36 2 0 16 -15 33 -32z m-8415 -50 c16
-30 3 -20 -27 20 -23 30 -24 33 -5 17 13 -11 27 -28 32 -37z m5899 16 c0 -8
-4 -12 -10 -9 -5 3 -10 13 -10 21 0 8 5 12 10 9 6 -3 10 -13 10 -21z m-5817
-215 c20 -25 37 -51 37 -58 0 -6 4 -11 9 -11 5 0 12 -7 15 -16 13 -34 -3 -23
-38 26 -20 28 -40 48 -45 46 -5 -3 -15 2 -22 12 -13 15 -12 16 4 3 36 -28 16
9 -30 57 -53 54 -110 118 -132 148 -25 33 162 -159 202 -207z m8457 115 c41
-41 68 -72 60 -68 -15 7 -147 144 -139 144 2 0 38 -34 79 -76z m-8439 -23 c42
-49 47 -67 24 -97 -11 -14 -14 -15 -15 -4 0 8 4 21 9 29 5 8 5 19 0 25 -66 80
-99 125 -99 132 1 5 10 -2 21 -16 12 -14 38 -45 60 -69z m-43 -2 c19 -30 11
-32 -11 -3 -10 13 -14 24 -10 24 5 0 14 -9 21 -21z m-114 -49 c-6 -5 -24 21
-24 34 0 6 6 1 14 -10 8 -10 12 -21 10 -24z m8736 -75 c35 -36 62 -65 59 -65
-2 0 -34 29 -69 65 -35 36 -62 65 -59 65 2 0 34 -29 69 -65z m-8642 -8 c18
-22 30 -43 26 -46 -3 -3 -14 5 -25 19 -11 14 -31 37 -44 53 -14 15 -25 30 -25
32 0 12 37 -20 68 -58z m7532 23 c9 -13 243 -263 309 -330 l64 -65 -6 -1210
-5 -1210 -53 -56 c-125 -130 -186 -196 -207 -224 -13 -16 -44 -53 -68 -81
l-45 -51 -473 -2 -473 -1 -6 443 c-4 243 -7 970 -7 1614 l0 1173 468 2 c257 2
474 3 482 4 8 1 17 -2 20 -6z m-7486 -26 c4 -10 1 -14 -6 -12 -15 5 -23 28
-10 28 5 0 13 -7 16 -16z m5660 -30 c10 -26 7 -44 -8 -44 -8 0 -17 9 -21 20
-11 34 16 57 29 24z m3036 -69 c19 -19 32 -35 29 -35 -3 0 -20 16 -39 35 -19
19 -32 35 -29 35 3 0 20 -16 39 -35z m-8488 -89 c15 -17 23 -33 17 -34 -11 -4
-129 114 -122 122 7 6 65 -43 105 -88z m8543 24 c10 -11 16 -20 13 -20 -3 0
-13 9 -23 20 -10 11 -16 20 -13 20 3 0 13 -9 23 -20z m-8695 -40 c0 8 3 11 6
7 12 -12 -7 -28 -20 -18 -7 6 -17 7 -21 3 -5 -4 -5 -1 -1 6 6 10 11 10 22 1
11 -9 14 -9 14 1z m5608 -68 c2 -7 -3 -12 -12 -12 -9 0 -16 7 -16 16 0 17 22
14 28 -4z m-5261 -8 c-3 -3 -12 -4 -19 -1 -8 3 -5 6 6 6 11 1 17 -2 13 -5z
m8484 -31 c13 -16 12 -17 -3 -4 -10 7 -18 15 -18 17 0 8 8 3 21 -13z m-9194
-15 c-3 -8 -6 -5 -6 6 -1 11 2 17 5 13 3 -3 4 -12 1 -19z m6053 -168 c0 -5 -4
-10 -10 -10 -5 0 -10 5 -10 10 0 6 5 10 10 10 6 0 10 -4 10 -10z m-5402 -675
c-3 -3 -13 7 -23 22 l-17 28 23 -22 c12 -12 20 -25 17 -28z m387 -45 c-4 -6
-22 -10 -40 -8 -44 3 -34 18 11 18 22 0 33 -4 29 -10z m-315 -30 c0 -5 -2 -10
-4 -10 -3 0 -8 5 -11 10 -3 6 -1 10 4 10 6 0 11 -4 11 -10z m270 6 c0 -3 -4
-8 -10 -11 -5 -3 -10 -1 -10 4 0 6 5 11 10 11 6 0 10 -2 10 -4z m-234 -43 c-7
-7 -26 7 -26 19 0 6 6 6 15 -2 9 -7 13 -15 11 -17z m2931 -489 c22 -6 20 -11
-55 -160 l-77 -153 -47 0 -47 -1 30 53 c93 157 162 266 169 266 3 1 15 -2 27
-5z m401 -6 c11 -14 162 -302 162 -309 0 -3 -42 -3 -94 -1 -104 4 -118 -2 -91
-46 16 -26 16 -27 -2 -7 -45 48 -72 55 -219 52 -76 -2 -149 -1 -161 1 l-23 4
23 27 c12 15 60 87 107 159 l85 131 101 1 c69 0 105 -4 112 -12z m-1308 -148
c0 -5 -2 -10 -4 -10 -3 0 -8 5 -11 10 -3 6 -1 10 4 10 6 0 11 -4 11 -10z
m1230 -205 c0 -2 -9 -9 -20 -15 -12 -6 -20 -7 -20 -1 0 5 8 12 18 14 9 3 18 5
20 6 1 0 2 -1 2 -4z m91 -52 c13 -16 12 -17 -3 -4 -10 7 -18 15 -18 17 0 8 8
3 21 -13z m-57 -22 c4 -5 -3 -7 -14 -4 -23 6 -26 13 -6 13 8 0 17 -4 20 -9z
m398 -554 c69 -213 130 -401 133 -417 l7 -30 -125 0 -125 0 -33 98 c-30 92
-127 366 -151 425 l-10 27 -259 0 c-143 0 -259 3 -259 8 0 9 -68 81 -95 101
-11 8 0 -7 25 -34 25 -27 49 -52 54 -56 4 -4 4 -9 0 -12 -14 -8 -294 -7 -294
1 0 4 21 69 46 145 l46 137 456 -2 456 -3 128 -388z m-3769 -4 c-7 -2 -21 -2
-30 0 -10 3 -4 5 12 5 17 0 24 -2 18 -5z m70 -10 c-7 -2 -19 -2 -25 0 -7 3 -2
5 12 5 14 0 19 -2 13 -5z m-88 -30 c-11 -3 -23 -10 -26 -15 -3 -5 -9 -3 -12 6
-5 13 0 16 26 15 21 -1 25 -3 12 -6z m2165 3 c0 -3 -4 -8 -10 -11 -5 -3 -10
-1 -10 4 0 6 5 11 10 11 6 0 10 -2 10 -4z m23 -26 c-3 -12 -8 -19 -11 -16 -5
6 5 36 12 36 2 0 2 -9 -1 -20z m661 -59 c3 -5 -9 -39 -27 -77 -19 -38 -49
-106 -68 -151 l-34 -83 -107 0 c-60 0 -108 3 -108 7 0 6 67 215 90 281 l12 32
118 0 c66 0 121 -4 124 -9z m-517 -43 c-3 -8 -6 -5 -6 6 -1 11 2 17 5 13 3 -3
4 -12 1 -19z m-2187 -194 c0 -36 4 -64 10 -64 6 0 10 -6 10 -13 0 -8 -7 -14
-15 -14 -12 0 -15 16 -15 77 0 65 -3 80 -21 96 -11 10 -25 28 -31 39 -5 11 6
3 26 -18 34 -36 36 -42 36 -103z m256 -20 c8 -29 -7 -49 -31 -41 -34 14 -31
67 4 67 14 0 23 -9 27 -26z m-296 -93 c-19 -15 -22 -22 -12 -34 9 -11 8 -18
-7 -31 -11 -10 -17 -24 -14 -32 3 -8 -16 -33 -48 -61 -29 -27 -60 -56 -68 -65
-23 -27 -26 -22 -22 29 2 31 11 58 26 75 31 37 148 137 160 137 6 0 -1 -8 -15
-18z m70 -55 c0 -2 -8 -10 -17 -17 -16 -13 -17 -12 -4 4 13 16 21 21 21 13z
m4588 -175 l553 -1 -121 -132 c-68 -73 -154 -172 -194 -220 l-71 -87 -486 0
-486 -1 -10 23 c-14 29 -176 246 -257 342 l-58 70 93 6 c52 3 182 5 289 3 107
-2 444 -3 748 -3z m-2080 -54 c-24 -28 -87 -115 -141 -192 -53 -77 -107 -152
-120 -166 l-22 -26 -391 5 -392 4 -48 60 c-51 63 -163 194 -201 236 -13 14
-20 29 -16 35 3 5 2 7 -4 4 -6 -4 -29 16 -52 43 l-42 50 736 0 735 0 -42 -53z
m-2618 -243 c0 -8 -5 -12 -10 -9 -6 4 -8 11 -5 16 9 14 15 11 15 -7z m-15 -24
c3 -6 -1 -7 -9 -4 -18 7 -21 14 -7 14 6 0 13 -4 16 -10z m-27 -30 c-7 -11 -16
-16 -21 -11 -12 12 0 31 19 31 12 0 12 -3 2 -20z m-31 -37 c-4 -4 5 -20 20
-37 l28 -31 -32 29 c-28 25 -35 46 -16 46 4 0 3 -3 0 -7z m8 -313 c10 -11 16
-20 13 -20 -3 0 -13 9 -23 20 -10 11 -16 20 -13 20 3 0 13 -9 23 -20z m69 -39
c3 -5 0 -14 -8 -20 -10 -8 -16 -8 -25 3 -10 12 -8 13 10 9 15 -4 20 -3 15 5
-4 7 -5 12 -2 12 3 0 7 -4 10 -9z"/>
<path d="M5602 7678 c-14 -14 -16 -44 -3 -52 15 -10 32 20 23 43 -6 17 -10 19
-20 9z m13 -27 c3 -5 2 -12 -3 -15 -5 -3 -9 1 -9 9 0 17 3 19 12 6z"/>
<path d="M5640 6420 c6 -11 12 -20 14 -20 2 0 2 9 -1 20 -3 11 -9 20 -15 20
-5 0 -4 -9 2 -20z"/>
<path d="M5570 6360 c0 -5 5 -10 11 -10 5 0 7 5 4 10 -3 6 -8 10 -11 10 -2 0
-4 -4 -4 -10z"/>
<path d="M5650 6266 c0 -15 24 -28 34 -19 7 7 -13 33 -25 33 -5 0 -9 -6 -9
-14z"/>
<path d="M5655 5890 c3 -5 8 -10 11 -10 2 0 4 5 4 10 0 6 -5 10 -11 10 -5 0
-7 -4 -4 -10z"/>
<path d="M3061 3954 c0 -11 3 -14 6 -6 3 7 2 16 -1 19 -3 4 -6 -2 -5 -13z"/>
<path d="M3016 3825 c-3 -9 -6 -24 -5 -33 0 -9 5 -4 10 12 9 32 6 48 -5 21z"/>
<path d="M3046 3804 c-4 -9 -4 -19 -1 -22 2 -3 7 3 11 12 4 9 4 19 1 22 -2 3
-7 -3 -11 -12z"/>
<path d="M2996 3755 c-9 -26 -7 -32 5 -12 6 10 9 21 6 23 -2 3 -7 -2 -11 -11z"/>
<path d="M2970 3681 c-13 -25 -13 -41 1 -41 5 0 7 4 4 10 -3 5 -1 19 5 30 6
11 8 20 6 20 -3 0 -10 -9 -16 -19z"/>
<path d="M2945 3610 c-3 -5 -1 -10 4 -10 6 0 11 5 11 10 0 6 -2 10 -4 10 -3 0
-8 -4 -11 -10z"/>
<path d="M2930 3521 c0 -7 -4 -9 -10 -6 -5 3 -10 1 -10 -4 0 -6 4 -11 9 -11
13 0 25 20 17 27 -3 4 -6 1 -6 -6z"/>
<path d="M2921 3425 c-1 -23 -3 -27 -11 -15 -8 13 -10 12 -10 -2 0 -10 5 -18
10 -18 14 0 23 25 17 47 -3 11 -5 6 -6 -12z"/>
<path d="M2877 3368 c-4 -14 -10 -33 -13 -42 -10 -26 16 -19 42 12 13 15 24
31 24 37 0 5 -8 -2 -17 -15 l-18 -25 -5 30 -6 30 -7 -27z"/>
<path d="M3163 3368 c-2 -18 0 -20 7 -8 12 18 13 30 2 30 -4 0 -9 -10 -9 -22z"/>
<path d="M2956 3363 c-11 -11 -6 -24 6 -17 8 5 9 2 5 -9 -5 -13 -1 -17 16 -16
12 0 16 3 9 6 -6 2 -10 8 -8 11 5 10 -20 32 -28 25z"/>
<path d="M3136 3333 c-6 -14 -5 -15 5 -6 7 7 10 15 7 18 -3 3 -9 -2 -12 -12z"/>
<path d="M2916 3311 c-15 -16 -15 -19 -1 -24 9 -4 15 -1 15 8 0 8 5 15 10 15
6 0 10 5 10 10 0 16 -15 12 -34 -9z"/>
<path d="M2842 3261 c-9 -24 -8 -29 3 -25 8 3 11 12 9 19 -4 10 1 12 15 8 16
-4 21 -1 20 13 0 12 -3 14 -6 6 -4 -9 -8 -10 -18 -2 -10 8 -15 4 -23 -19z"/>
<path d="M2930 3256 c0 -2 7 -7 16 -10 8 -3 12 -2 9 4 -6 10 -25 14 -25 6z"/>
<path d="M3076 3163 c-6 -14 -5 -15 5 -6 7 7 10 15 7 18 -3 3 -9 -2 -12 -12z"/>
<path d="M3080 3129 c0 -5 5 -7 10 -4 6 3 10 8 10 11 0 2 -4 4 -10 4 -5 0 -10
-5 -10 -11z"/>
<path d="M3028 3073 c7 -3 16 -2 19 1 4 3 -2 6 -13 5 -11 0 -14 -3 -6 -6z"/>
<path d="M1388 6613 c6 -2 18 -2 25 0 6 3 1 5 -13 5 -14 0 -19 -2 -12 -5z"/>
<path d="M7157 5283 c-3 -148 -7 -744 -7 -1325 l-1 -1058 260 0 260 0 49 53
c27 28 79 83 114 121 l65 69 -5 1079 -5 1078 -51 53 c-28 30 -82 86 -119 125
l-69 72 -242 0 -243 0 -6 -267z"/>
<path d="M3440 3404 c0 -5 7 -18 15 -28 8 -11 15 -16 15 -10 0 5 -7 18 -15 28
-8 11 -15 16 -15 10z"/>
<path d="M3500 3325 c13 -14 26 -25 28 -25 3 0 -5 11 -18 25 -13 14 -26 25
-28 25 -3 0 5 -11 18 -25z"/>
<path d="M1599 5803 c-13 -16 -12 -17 4 -4 16 13 21 21 13 21 -2 0 -10 -8 -17
-17z"/>
<path d="M1418 5590 c-14 -16 -23 -30 -19 -30 4 0 20 14 34 30 15 17 24 30 19
30 -4 0 -19 -13 -34 -30z"/>
<path d="M560 4865 c-5 -14 -12 -25 -15 -25 -4 0 -3 5 1 12 5 7 3 8 -5 4 -7
-5 -10 -14 -7 -22 3 -7 1 -16 -4 -19 -6 -4 -10 -1 -10 5 0 6 -4 9 -10 5 -5 -3
-6 -13 -3 -22 4 -10 2 -14 -4 -10 -5 4 -21 -5 -34 -20 -13 -14 -18 -23 -11
-19 6 4 12 3 12 -3 0 -5 -3 -11 -7 -14 -5 -2 -3 -2 4 -1 14 3 35 -20 26 -29
-12 -13 23 -7 36 6 11 10 13 10 7 0 -4 -8 -1 -13 8 -13 9 0 16 8 17 18 0 14 2
14 8 -3 8 -19 8 -19 15 3 4 13 3 29 -3 36 -6 7 -8 15 -5 18 8 9 10 118 1 118
-4 0 -12 -11 -17 -25z m-28 -84 c12 -1 -25 -41 -38 -41 -17 0 -23 22 -10 36 6
6 18 10 26 9 8 -2 18 -4 22 -4z"/>
<path d="M1881 4834 c0 -11 3 -14 6 -6 3 7 2 16 -1 19 -3 4 -6 -2 -5 -13z"/>
<path d="M415 4701 c-3 -5 -2 -12 3 -15 5 -3 9 1 9 9 0 17 -3 19 -12 6z"/>
<path d="M613 4045 c0 -27 2 -38 4 -22 2 15 2 37 0 50 -2 12 -4 0 -4 -28z"/>
<path d="M11 3984 c0 -11 3 -14 6 -6 3 7 2 16 -1 19 -3 4 -6 -2 -5 -13z"/>
<path d="M611 3893 c0 -6 -4 -20 -7 -30 -5 -14 -4 -15 5 -7 7 7 11 20 8 30 -3
11 -5 14 -6 7z"/>
<path d="M600 3830 c0 -5 5 -10 10 -10 6 0 10 5 10 10 0 6 -4 10 -10 10 -5 0
-10 -4 -10 -10z"/>
<path d="M614 3630 c0 -102 2 -143 3 -92 2 50 2 134 0 185 -1 50 -3 9 -3 -93z"/>
<path d="M2 3560 c0 -14 2 -19 5 -12 2 6 2 18 0 25 -3 6 -5 1 -5 -13z"/>
<path d="M9050 2781 c0 -6 4 -13 10 -16 6 -3 7 1 4 9 -7 18 -14 21 -14 7z"/>
</g>
</svg>
